<svg xmlns="http://www.w3.org/2000/svg" xmlns:xlink="http://www.w3.org/1999/xlink" width="135" zoomAndPan="magnify" viewBox="0 0 101.25 37.5" height="50" preserveAspectRatio="xMidYMid meet" version="1.0"><defs><g/></defs><g fill="#ffffff" fill-opacity="1"><g transform="translate(1.136391, 35.349639)"><g><path d="M 2.296875 0 L 2.296875 -13.75 L 2.890625 -13.75 C 2.890625 -10.695312 3.332031 -8.195312 4.21875 -6.25 C 5.101562 -4.3125 6.304688 -2.882812 7.828125 -1.96875 C 9.359375 -1.050781 11.054688 -0.59375 12.921875 -0.59375 C 14.085938 -0.59375 15.148438 -0.769531 16.109375 -1.125 C 17.066406 -1.476562 17.835938 -2.054688 18.421875 -2.859375 C 19.003906 -3.671875 19.296875 -4.75 19.296875 -6.09375 C 19.296875 -7.375 18.890625 -8.550781 18.078125 -9.625 C 17.265625 -10.695312 16.207031 -11.71875 14.90625 -12.6875 C 13.613281 -13.664062 12.25 -14.632812 10.8125 -15.59375 C 9.375 -16.5625 8.003906 -17.566406 6.703125 -18.609375 C 5.410156 -19.648438 4.359375 -20.78125 3.546875 -22 C 2.742188 -23.21875 2.34375 -24.5625 2.34375 -26.03125 C 2.34375 -27.800781 2.820312 -29.265625 3.78125 -30.421875 C 4.738281 -31.585938 5.953125 -32.457031 7.421875 -33.03125 C 8.890625 -33.613281 10.375 -33.90625 11.875 -33.90625 C 13.03125 -33.90625 14.015625 -33.789062 14.828125 -33.5625 C 15.640625 -33.332031 16.332031 -33.054688 16.90625 -32.734375 C 17.488281 -32.421875 18.015625 -32.148438 18.484375 -31.921875 C 18.960938 -31.691406 19.429688 -31.578125 19.890625 -31.578125 C 20.503906 -31.578125 20.914062 -31.710938 21.125 -31.984375 C 21.34375 -32.265625 21.453125 -32.738281 21.453125 -33.40625 L 22.046875 -33.40625 L 22.046875 -22.59375 L 21.453125 -22.59375 C 21.453125 -24.632812 21.0625 -26.425781 20.28125 -27.96875 C 19.5 -29.519531 18.4375 -30.722656 17.09375 -31.578125 C 15.75 -32.429688 14.222656 -32.859375 12.515625 -32.859375 C 10.679688 -32.859375 9.363281 -32.421875 8.5625 -31.546875 C 7.769531 -30.679688 7.375 -29.578125 7.375 -28.234375 C 7.375 -26.734375 7.769531 -25.410156 8.5625 -24.265625 C 9.363281 -23.117188 10.390625 -22.078125 11.640625 -21.140625 C 12.890625 -20.210938 14.21875 -19.304688 15.625 -18.421875 C 17.03125 -17.535156 18.359375 -16.59375 19.609375 -15.59375 C 20.867188 -14.601562 21.894531 -13.5 22.6875 -12.28125 C 23.476562 -11.0625 23.875 -9.625 23.875 -7.96875 C 23.875 -6.414062 23.5625 -4.992188 22.9375 -3.703125 C 22.3125 -2.421875 21.265625 -1.390625 19.796875 -0.609375 C 18.328125 0.160156 16.296875 0.546875 13.703125 0.546875 C 12.453125 0.546875 11.394531 0.4375 10.53125 0.21875 C 9.675781 0.0078125 8.9375 -0.238281 8.3125 -0.53125 C 7.6875 -0.820312 7.113281 -1.070312 6.59375 -1.28125 C 6.070312 -1.5 5.539062 -1.609375 5 -1.609375 C 3.59375 -1.609375 2.890625 -1.070312 2.890625 0 Z M 2.296875 0 "/></g></g></g><g fill="#ffffff" fill-opacity="1"><g transform="translate(26.845875, 35.349639)"><g><path d="M 1.375 -32.8125 L 1.375 -33.40625 L 14.4375 -33.40625 C 16.144531 -33.40625 17.816406 -33.320312 19.453125 -33.15625 C 21.085938 -32.988281 22.5625 -32.628906 23.875 -32.078125 C 25.1875 -31.523438 26.238281 -30.691406 27.03125 -29.578125 C 27.832031 -28.460938 28.234375 -26.972656 28.234375 -25.109375 C 28.234375 -22.753906 27.550781 -20.867188 26.1875 -19.453125 C 24.832031 -18.035156 23.066406 -17.3125 20.890625 -17.28125 L 20.890625 -17.09375 C 23.796875 -17.09375 26.085938 -16.425781 27.765625 -15.09375 C 29.453125 -13.769531 30.296875 -11.960938 30.296875 -9.671875 C 30.296875 -8.660156 30.132812 -7.597656 29.8125 -6.484375 C 29.488281 -5.367188 28.859375 -4.3125 27.921875 -3.3125 C 26.992188 -2.320312 25.648438 -1.519531 23.890625 -0.90625 C 22.140625 -0.300781 19.828125 0 16.953125 0 L 1.375 0 L 1.375 -0.59375 C 2.476562 -0.59375 3.28125 -0.726562 3.78125 -1 C 4.28125 -1.28125 4.53125 -1.941406 4.53125 -2.984375 L 4.53125 -30.515625 C 4.5 -31.492188 4.234375 -32.117188 3.734375 -32.390625 C 3.234375 -32.671875 2.445312 -32.8125 1.375 -32.8125 Z M 15.3125 -16.90625 L 9.625 -16.90625 L 9.625 -2.984375 C 9.625 -2.273438 9.742188 -1.742188 9.984375 -1.390625 C 10.234375 -1.046875 10.707031 -0.816406 11.40625 -0.703125 C 12.113281 -0.597656 13.15625 -0.546875 14.53125 -0.546875 C 17.976562 -0.546875 20.550781 -1.285156 22.25 -2.765625 C 23.945312 -4.253906 24.796875 -6.585938 24.796875 -9.765625 C 24.796875 -11.691406 24.375 -13.171875 23.53125 -14.203125 C 22.6875 -15.242188 21.546875 -15.953125 20.109375 -16.328125 C 18.679688 -16.710938 17.082031 -16.90625 15.3125 -16.90625 Z M 9.625 -30.515625 L 9.625 -17.453125 L 14.484375 -17.453125 C 16.097656 -17.453125 17.5625 -17.648438 18.875 -18.046875 C 20.195312 -18.453125 21.242188 -19.203125 22.015625 -20.296875 C 22.796875 -21.398438 23.1875 -23.003906 23.1875 -25.109375 C 23.1875 -27.617188 22.546875 -29.53125 21.265625 -30.84375 C 19.984375 -32.15625 18.015625 -32.8125 15.359375 -32.8125 C 13.796875 -32.8125 12.601562 -32.765625 11.78125 -32.671875 C 10.957031 -32.578125 10.390625 -32.367188 10.078125 -32.046875 C 9.773438 -31.734375 9.625 -31.222656 9.625 -30.515625 Z M 9.625 -30.515625 "/></g></g></g><g fill="#ffffff" fill-opacity="1"><g transform="translate(58.971277, 35.349639)"><g><path d="M 4.53125 -3.078125 L 4.53125 -30.34375 C 4.53125 -31.40625 4.28125 -32.082031 3.78125 -32.375 C 3.28125 -32.664062 2.476562 -32.8125 1.375 -32.8125 L 1.375 -33.40625 L 12.78125 -33.40625 L 12.78125 -32.8125 C 11.6875 -32.8125 10.878906 -32.664062 10.359375 -32.375 C 9.835938 -32.082031 9.578125 -31.40625 9.578125 -30.34375 L 9.578125 -15.578125 L 22.90625 -30.4375 C 23.644531 -31.164062 23.953125 -31.695312 23.828125 -32.03125 C 23.703125 -32.363281 23.316406 -32.578125 22.671875 -32.671875 C 22.035156 -32.765625 21.304688 -32.8125 20.484375 -32.8125 L 20.484375 -33.40625 L 29.28125 -33.40625 L 29.28125 -32.8125 C 28.394531 -32.8125 27.644531 -32.753906 27.03125 -32.640625 C 26.425781 -32.535156 25.863281 -32.320312 25.34375 -32 C 24.820312 -31.6875 24.253906 -31.175781 23.640625 -30.46875 L 11.96875 -17.375 C 12.570312 -16.332031 13.289062 -15.550781 14.125 -15.03125 C 14.96875 -14.507812 15.789062 -14.25 16.59375 -14.25 C 17.476562 -14.25 18.238281 -14.523438 18.875 -15.078125 L 27.125 -3.078125 C 27.832031 -2.097656 28.5625 -1.4375 29.3125 -1.09375 C 30.0625 -0.757812 30.863281 -0.59375 31.71875 -0.59375 L 31.71875 0 L 26.765625 0 C 25.484375 0 24.410156 -0.265625 23.546875 -0.796875 C 22.691406 -1.335938 21.957031 -2.007812 21.34375 -2.8125 C 20.738281 -3.625 20.128906 -4.441406 19.515625 -5.265625 L 11.5 -16.90625 L 9.578125 -14.75 L 9.578125 -3.078125 C 9.578125 -2.035156 9.835938 -1.359375 10.359375 -1.046875 C 10.878906 -0.742188 11.6875 -0.59375 12.78125 -0.59375 L 12.78125 0 L 1.375 0 L 1.375 -0.59375 C 2.476562 -0.59375 3.28125 -0.742188 3.78125 -1.046875 C 4.28125 -1.359375 4.53125 -2.035156 4.53125 -3.078125 Z M 4.53125 -3.078125 "/></g></g></g><g fill="#ffffff" fill-opacity="1"><g transform="translate(91.371639, 35.349639)"><g><path d="M 2.296875 -2.015625 C 2.296875 -2.722656 2.546875 -3.328125 3.046875 -3.828125 C 3.546875 -4.328125 4.148438 -4.578125 4.859375 -4.578125 C 5.554688 -4.578125 6.15625 -4.328125 6.65625 -3.828125 C 7.164062 -3.328125 7.421875 -2.722656 7.421875 -2.015625 C 7.421875 -1.316406 7.164062 -0.710938 6.65625 -0.203125 C 6.15625 0.296875 5.554688 0.546875 4.859375 0.546875 C 4.148438 0.546875 3.546875 0.296875 3.046875 -0.203125 C 2.546875 -0.710938 2.296875 -1.316406 2.296875 -2.015625 Z M 2.296875 -2.015625 "/></g></g></g></svg>