<svg xmlns="http://www.w3.org/2000/svg" xmlns:xlink="http://www.w3.org/1999/xlink" width="135" zoomAndPan="magnify" viewBox="0 0 101.25 37.5" height="50" preserveAspectRatio="xMidYMid meet" version="1.0"><defs><g/></defs><g fill="#ffffff" fill-opacity="1"><g transform="translate(23.489372, 24.982576)"><g><path d="M 1.234375 0 L 1.234375 -7.359375 L 1.546875 -7.359375 C 1.546875 -5.722656 1.78125 -4.382812 2.25 -3.34375 C 2.726562 -2.3125 3.375 -1.546875 4.1875 -1.046875 C 5.007812 -0.554688 5.921875 -0.3125 6.921875 -0.3125 C 7.546875 -0.3125 8.113281 -0.40625 8.625 -0.59375 C 9.144531 -0.789062 9.554688 -1.101562 9.859375 -1.53125 C 10.171875 -1.96875 10.328125 -2.546875 10.328125 -3.265625 C 10.328125 -3.953125 10.109375 -4.582031 9.671875 -5.15625 C 9.242188 -5.726562 8.679688 -6.273438 7.984375 -6.796875 C 7.296875 -7.316406 6.566406 -7.832031 5.796875 -8.34375 C 5.023438 -8.863281 4.289062 -9.398438 3.59375 -9.953125 C 2.894531 -10.515625 2.328125 -11.125 1.890625 -11.78125 C 1.460938 -12.4375 1.25 -13.15625 1.25 -13.9375 C 1.25 -14.882812 1.503906 -15.671875 2.015625 -16.296875 C 2.535156 -16.921875 3.1875 -17.390625 3.96875 -17.703125 C 4.757812 -18.015625 5.554688 -18.171875 6.359375 -18.171875 C 6.984375 -18.171875 7.507812 -18.109375 7.9375 -17.984375 C 8.375 -17.859375 8.75 -17.707031 9.0625 -17.53125 C 9.375 -17.363281 9.65625 -17.21875 9.90625 -17.09375 C 10.15625 -16.96875 10.40625 -16.90625 10.65625 -16.90625 C 10.976562 -16.90625 11.195312 -16.976562 11.3125 -17.125 C 11.425781 -17.28125 11.484375 -17.535156 11.484375 -17.890625 L 11.8125 -17.890625 L 11.8125 -12.109375 L 11.484375 -12.109375 C 11.484375 -13.203125 11.273438 -14.160156 10.859375 -14.984375 C 10.441406 -15.804688 9.875 -16.445312 9.15625 -16.90625 C 8.4375 -17.363281 7.617188 -17.59375 6.703125 -17.59375 C 5.722656 -17.59375 5.019531 -17.359375 4.59375 -16.890625 C 4.164062 -16.429688 3.953125 -15.84375 3.953125 -15.125 C 3.953125 -14.320312 4.164062 -13.613281 4.59375 -13 C 5.019531 -12.382812 5.566406 -11.828125 6.234375 -11.328125 C 6.898438 -10.828125 7.609375 -10.335938 8.359375 -9.859375 C 9.117188 -9.390625 9.832031 -8.890625 10.5 -8.359375 C 11.175781 -7.828125 11.722656 -7.234375 12.140625 -6.578125 C 12.566406 -5.921875 12.78125 -5.148438 12.78125 -4.265625 C 12.78125 -3.429688 12.613281 -2.671875 12.28125 -1.984375 C 11.945312 -1.296875 11.382812 -0.742188 10.59375 -0.328125 C 9.8125 0.0859375 8.726562 0.296875 7.34375 0.296875 C 6.664062 0.296875 6.097656 0.238281 5.640625 0.125 C 5.179688 0.0078125 4.785156 -0.125 4.453125 -0.28125 C 4.117188 -0.4375 3.8125 -0.570312 3.53125 -0.6875 C 3.257812 -0.800781 2.972656 -0.859375 2.671875 -0.859375 C 1.921875 -0.859375 1.546875 -0.570312 1.546875 0 Z M 1.234375 0 "/></g></g></g><g fill="#ffffff" fill-opacity="1"><g transform="translate(37.25701, 24.982576)"><g><path d="M 0.734375 -17.578125 L 0.734375 -17.890625 L 7.734375 -17.890625 C 8.648438 -17.890625 9.546875 -17.84375 10.421875 -17.75 C 11.296875 -17.664062 12.082031 -17.472656 12.78125 -17.171875 C 13.488281 -16.878906 14.054688 -16.4375 14.484375 -15.84375 C 14.910156 -15.25 15.125 -14.453125 15.125 -13.453125 C 15.125 -12.191406 14.757812 -11.179688 14.03125 -10.421875 C 13.300781 -9.660156 12.351562 -9.269531 11.1875 -9.25 L 11.1875 -9.15625 C 12.75 -9.15625 13.976562 -8.796875 14.875 -8.078125 C 15.769531 -7.367188 16.21875 -6.398438 16.21875 -5.171875 C 16.21875 -4.640625 16.128906 -4.070312 15.953125 -3.46875 C 15.785156 -2.875 15.453125 -2.3125 14.953125 -1.78125 C 14.460938 -1.25 13.742188 -0.816406 12.796875 -0.484375 C 11.859375 -0.160156 10.617188 0 9.078125 0 L 0.734375 0 L 0.734375 -0.3125 C 1.328125 -0.3125 1.757812 -0.382812 2.03125 -0.53125 C 2.300781 -0.6875 2.4375 -1.039062 2.4375 -1.59375 L 2.4375 -16.34375 C 2.414062 -16.875 2.269531 -17.210938 2 -17.359375 C 1.726562 -17.503906 1.304688 -17.578125 0.734375 -17.578125 Z M 8.203125 -9.0625 L 5.15625 -9.0625 L 5.15625 -1.59375 C 5.15625 -1.21875 5.21875 -0.9375 5.34375 -0.75 C 5.476562 -0.5625 5.734375 -0.4375 6.109375 -0.375 C 6.484375 -0.320312 7.039062 -0.296875 7.78125 -0.296875 C 9.632812 -0.296875 11.015625 -0.691406 11.921875 -1.484375 C 12.828125 -2.273438 13.28125 -3.523438 13.28125 -5.234375 C 13.28125 -6.265625 13.054688 -7.054688 12.609375 -7.609375 C 12.160156 -8.160156 11.550781 -8.539062 10.78125 -8.75 C 10.007812 -8.957031 9.148438 -9.0625 8.203125 -9.0625 Z M 5.15625 -16.34375 L 5.15625 -9.359375 L 7.75 -9.359375 C 8.625 -9.359375 9.410156 -9.460938 10.109375 -9.671875 C 10.816406 -9.878906 11.378906 -10.28125 11.796875 -10.875 C 12.210938 -11.46875 12.421875 -12.328125 12.421875 -13.453125 C 12.421875 -14.796875 12.078125 -15.816406 11.390625 -16.515625 C 10.703125 -17.222656 9.644531 -17.578125 8.21875 -17.578125 C 7.382812 -17.578125 6.742188 -17.550781 6.296875 -17.5 C 5.859375 -17.445312 5.554688 -17.332031 5.390625 -17.15625 C 5.234375 -16.988281 5.15625 -16.71875 5.15625 -16.34375 Z M 5.15625 -16.34375 "/></g></g></g><g fill="#ffffff" fill-opacity="1"><g transform="translate(54.460425, 24.982576)"><g><path d="M 2.4375 -1.640625 L 2.4375 -16.25 C 2.4375 -16.820312 2.300781 -17.1875 2.03125 -17.34375 C 1.757812 -17.5 1.328125 -17.578125 0.734375 -17.578125 L 0.734375 -17.890625 L 6.84375 -17.890625 L 6.84375 -17.578125 C 6.257812 -17.578125 5.828125 -17.5 5.546875 -17.34375 C 5.265625 -17.1875 5.125 -16.820312 5.125 -16.25 L 5.125 -8.34375 L 12.265625 -16.296875 C 12.660156 -16.691406 12.828125 -16.976562 12.765625 -17.15625 C 12.703125 -17.332031 12.5 -17.445312 12.15625 -17.5 C 11.8125 -17.550781 11.414062 -17.578125 10.96875 -17.578125 L 10.96875 -17.890625 L 15.6875 -17.890625 L 15.6875 -17.578125 C 15.207031 -17.578125 14.800781 -17.546875 14.46875 -17.484375 C 14.144531 -17.429688 13.84375 -17.316406 13.5625 -17.140625 C 13.289062 -16.972656 12.992188 -16.703125 12.671875 -16.328125 L 6.40625 -9.296875 C 6.726562 -8.742188 7.113281 -8.328125 7.5625 -8.046875 C 8.019531 -7.773438 8.460938 -7.640625 8.890625 -7.640625 C 9.359375 -7.640625 9.765625 -7.785156 10.109375 -8.078125 L 14.53125 -1.640625 C 14.90625 -1.117188 15.289062 -0.765625 15.6875 -0.578125 C 16.09375 -0.398438 16.523438 -0.3125 16.984375 -0.3125 L 16.984375 0 L 14.328125 0 C 13.640625 0 13.066406 -0.140625 12.609375 -0.421875 C 12.160156 -0.710938 11.769531 -1.070312 11.4375 -1.5 C 11.113281 -1.9375 10.785156 -2.378906 10.453125 -2.828125 L 6.15625 -9.0625 L 5.125 -7.90625 L 5.125 -1.640625 C 5.125 -1.085938 5.265625 -0.726562 5.546875 -0.5625 C 5.828125 -0.394531 6.257812 -0.3125 6.84375 -0.3125 L 6.84375 0 L 0.734375 0 L 0.734375 -0.3125 C 1.328125 -0.3125 1.757812 -0.394531 2.03125 -0.5625 C 2.300781 -0.726562 2.4375 -1.085938 2.4375 -1.640625 Z M 2.4375 -1.640625 "/></g></g></g><g fill="#ffffff" fill-opacity="1"><g transform="translate(71.811082, 24.982576)"><g><path d="M 1.234375 -1.078125 C 1.234375 -1.453125 1.363281 -1.773438 1.625 -2.046875 C 1.894531 -2.316406 2.222656 -2.453125 2.609375 -2.453125 C 2.984375 -2.453125 3.304688 -2.316406 3.578125 -2.046875 C 3.847656 -1.773438 3.984375 -1.453125 3.984375 -1.078125 C 3.984375 -0.703125 3.847656 -0.378906 3.578125 -0.109375 C 3.304688 0.160156 2.984375 0.296875 2.609375 0.296875 C 2.222656 0.296875 1.894531 0.160156 1.625 -0.109375 C 1.363281 -0.378906 1.234375 -0.703125 1.234375 -1.078125 Z M 1.234375 -1.078125 "/></g></g></g></svg>